<svg width="24" height="24" viewBox="0 0 24 24" fill="none" xmlns="http://www.w3.org/2000/svg"><path d="M9.50001 9H5.00001V10.5H9.50001V9Z" fill="currentColor"/><path d="M5.00001 12H9.50001V13.5H5.00001V12Z" fill="currentColor"/><path d="M9.50001 15H5.00001V16.5H9.50001V15Z" fill="currentColor"/><path d="M5.00001 6H9.50001V7.5H5.00001V6Z" fill="currentColor"/><path d="M14 12H16V13.5H14V12Z" fill="currentColor"/><path d="M19 12H17V13.5H19V12Z" fill="currentColor"/><path d="M14 15H16V16.5H14V15Z" fill="currentColor"/><path d="M19 15H17V16.5H19V15Z" fill="currentColor"/><path fill-rule="evenodd" clip-rule="evenodd" d="M1.00001 3L1 4.5H2.00001V18C2.00001 19.1046 2.89544 20 4.00001 20H20C21.1046 20 22 19.1046 22 18V11C22 9.89543 21.1046 9 20 9H12.5V4.5H13.5V3H1.00001ZM11 4.5H3.50001V18C3.50001 18.2761 3.72387 18.5 4.00001 18.5H11V4.5ZM20 18.5H12.5V10.5H20C20.2762 10.5 20.5 10.7239 20.5 11V18C20.5 18.2761 20.2762 18.5 20 18.5Z" fill="currentColor"/></svg>