<svg width="24" height="24" viewBox="0 0 24 24" fill="none" xmlns="http://www.w3.org/2000/svg"><path fill-rule="evenodd" clip-rule="evenodd" d="M4.07271 2.67123C4.19841 2.4135 4.46006 2.25 4.74681 2.25H19.2532C19.5399 2.25 19.8016 2.4135 19.9273 2.67123L21.9996 6.92024C22.0478 7.01909 22.0729 7.12554 22.0753 7.23211C22.1671 7.53226 22.219 7.85131 22.219 8.19519C22.219 9.45821 21.5298 10.5552 20.5133 11.1354V20.4771C20.5133 20.7329 20.4191 20.9481 20.3295 21.0966C20.2351 21.253 20.1128 21.3907 19.9823 21.5042C19.7378 21.7167 19.3585 21.9326 18.9184 21.9326H12.0007H12H11.9993H5.08157C4.64155 21.9326 4.26223 21.7167 4.01766 21.5042C3.88715 21.3907 3.76488 21.253 3.67051 21.0966C3.58093 20.9481 3.48669 20.7329 3.48669 20.4771V11.1362C2.46456 10.5526 1.78101 9.44733 1.78101 8.19519C1.78101 7.85133 1.83289 7.53229 1.92466 7.23216C1.92705 7.12557 1.95215 7.01911 2.00037 6.92024L4.07271 2.67123ZM3.29143 7.99902H20.7086C20.7155 8.06277 20.719 8.12801 20.719 8.19519C20.719 9.24121 19.874 10.0748 18.8547 10.0748C18.1604 10.0748 17.5446 9.68158 17.2204 9.07584C17.058 8.77262 16.7103 8.61867 16.3767 8.70235C16.0966 8.77259 15.8868 8.99519 15.8267 9.26833C15.4939 9.75592 14.9339 10.0748 14.2955 10.0748C13.6306 10.0748 13.0528 9.72615 12.719 9.18194C12.5826 8.95962 12.3405 8.82412 12.0797 8.82412H11.9203C11.6553 8.82412 11.41 8.96393 11.275 9.19191C10.9619 9.72056 10.3765 10.0748 9.70449 10.0748C9.0661 10.0748 8.50612 9.75592 8.17334 9.26833C8.11279 8.99329 7.90048 8.76964 7.61788 8.701C7.28162 8.61933 6.93314 8.7783 6.77442 9.08578C6.46856 9.67826 5.86008 10.0748 5.14534 10.0748C4.11599 10.0748 3.28101 9.23115 3.28101 8.19519C3.28101 8.12801 3.28454 8.06277 3.29143 7.99902ZM5.21547 3.75L3.87471 6.49902H20.1253L18.7845 3.75H5.21547ZM19.0133 11.5711C18.9607 11.5735 18.9078 11.5748 18.8547 11.5748C17.976 11.5748 17.1801 11.2324 16.5833 10.6753C15.9851 11.2333 15.181 11.5748 14.2955 11.5748C13.4029 11.5748 12.6007 11.227 12.0035 10.6612C11.4043 11.2307 10.5911 11.5748 9.70449 11.5748C8.82162 11.5748 8.01966 11.2353 7.42197 10.6802C6.82726 11.2367 6.02838 11.5748 5.14534 11.5748C5.09215 11.5748 5.03925 11.5735 4.98669 11.5711V20.3583C4.99131 20.3628 4.99632 20.3674 5.00171 20.3721C5.03168 20.3981 5.06268 20.4172 5.08654 20.4278C5.09153 20.4301 5.09546 20.4316 5.09835 20.4326H9V13.6834C9 13.306 9.31046 13 9.69342 13H14.3066C14.6895 13 15 13.306 15 13.6834V20.4326H18.9017C18.9045 20.4316 18.9085 20.4301 18.9135 20.4278C18.9373 20.4172 18.9683 20.3981 18.9983 20.3721C19.0037 20.3674 19.0087 20.3628 19.0133 20.3583V11.5711ZM13.5 14.5H10.5V20.5H13.5V14.5Z" fill="currentColor"/></svg>