<svg width="24" height="24" viewBox="0 0 24 24" fill="none" xmlns="http://www.w3.org/2000/svg"><path fill-rule="evenodd" clip-rule="evenodd" d="M19.5682 7.00418C20.9528 7.00418 22 7.86329 22 9.25V17.0105C22 18.2327 20.9747 19 19.9953 19H18.3454C18.6408 18.5324 18.886 18.0299 19.0732 17.5H19.9953C20.2251 17.5 20.5 17.2943 20.5 17.0105V9.25C20.5 8.76452 20.1827 8.50418 19.5682 8.50418H16.0994C15.8157 8.50418 15.5563 8.34408 15.4291 8.09048L14.3691 5.97421C14.1942 5.67474 13.8997 5.5 13.5906 5.5H10.4094C10.1003 5.5 9.80578 5.67474 9.65361 5.9323L8.57094 8.09048C8.44372 8.34408 8.18429 8.50418 7.90057 8.50418H4.43182C3.929 8.50418 3.5 8.96332 3.5 9.55418V17.0105C3.5 17.2648 3.74698 17.5 3.99956 17.5H4.92676C5.11404 18.0299 5.35917 18.5324 5.65456 19H3.99956C2.93454 19 2 18.1101 2 17.0105V9.55418C2 8.15681 3.07695 7.00418 4.43182 7.00418H7.43805L8.33558 5.21779C8.77536 4.46469 9.55874 4 10.4094 4H13.5906C14.4413 4 15.2246 4.46469 15.6871 5.2597L16.5623 7.00418H19.5682ZM12 19.5C14.4853 19.5 16.5 17.4853 16.5 15C16.5 12.5147 14.4853 10.5 12 10.5C9.51472 10.5 7.5 12.5147 7.5 15C7.5 17.4853 9.51472 19.5 12 19.5ZM6 15C6 18.3137 8.68629 21 12 21C15.3137 21 18 18.3137 18 15C18 11.6863 15.3137 9 12 9C8.68629 9 6 11.6863 6 15Z" fill="currentColor"/></svg>