<svg width="24" height="24" viewBox="0 0 24 24" fill="none" xmlns="http://www.w3.org/2000/svg"><path fill-rule="evenodd" clip-rule="evenodd" d="M21.71 12.159C21.71 10.731 20.838 9.503 19.599 8.978V6.103C19.598 4.199 18.05 2.65 16.145 2.65H7.848C5.945 2.65 4.396 4.199 4.396 6.103V8.978C3.157 9.503 2.285 10.731 2.285 12.159V17.358H3.699V19.185C3.699 20.381 4.792 21.354 6.137 21.354C7.482 21.354 8.575 20.381 8.575 19.185V17.358H15.413V19.185C15.413 20.381 16.507 21.354 17.851 21.354C19.196 21.354 20.289 20.381 20.289 19.185V17.358H21.71V12.159ZM5.896 6.103C5.896 5.026 6.772 4.15 7.848 4.15H16.145C17.222 4.15 18.098 5.026 18.098 6.103V8.707H5.896V6.103ZM6.137 19.854C6.645 19.854 7.075 19.547 7.075 19.185V17.358H5.199V19.185C5.199 19.547 5.629 19.854 6.137 19.854ZM8.575 15.858H3.785V12.159C3.785 11.082 4.661 10.207 5.738 10.207H18.258C19.334 10.207 20.21 11.082 20.21 12.159V15.858H15.413H8.575ZM17.851 19.854C18.359 19.854 18.789 19.547 18.789 19.185V17.358H16.913V19.185C16.913 19.547 17.343 19.854 17.851 19.854ZM6.564 14.043C7.12236 14.043 7.575 13.5904 7.575 13.032C7.575 12.4736 7.12236 12.021 6.564 12.021C6.00564 12.021 5.553 12.4736 5.553 13.032C5.553 13.5904 6.00564 14.043 6.564 14.043ZM18.442 13.032C18.442 13.5904 17.9894 14.043 17.431 14.043C16.8726 14.043 16.42 13.5904 16.42 13.032C16.42 12.4736 16.8726 12.021 17.431 12.021C17.9894 12.021 18.442 12.4736 18.442 13.032Z" fill="currentColor"/></svg>