<svg width="24" height="24" viewBox="0 0 24 24" fill="none" xmlns="http://www.w3.org/2000/svg"><path fill-rule="evenodd" clip-rule="evenodd" d="M2 11.5C2 15.6421 6.47715 19 12 19C12.2847 19 12.5666 18.9911 12.8453 18.9736L16.3907 21.8503C16.5793 22.0034 16.8172 22.0826 17.06 22.073C17.6118 22.0514 18.0416 21.5865 18.02 21.0346L17.884 17.565C20.3787 16.2012 22 13.9926 22 11.5C22 7.35786 17.5228 4 12 4C6.47715 4 2 7.35786 2 11.5ZM16.3468 16.6473C18.8531 15.5796 20.5 13.6302 20.5 11.5C20.5 8.29536 16.7728 5.5 12 5.5C7.22715 5.5 3.5 8.29536 3.5 11.5C3.5 14.7046 7.22715 17.5 12 17.5C12.4502 17.5 12.8911 17.4751 13.3204 17.4274L16.4779 19.9894L16.3468 16.6473Z" fill="currentColor"/></svg>