<svg width="24" height="24" viewBox="0 0 24 24" fill="none" xmlns="http://www.w3.org/2000/svg"><path d="M7.5 11C6.67157 11 6 10.3284 6 9.5C6 8.67157 6.67157 8 7.5 8C8.32843 8 9 8.67157 9 9.5C9 10.3284 8.32843 11 7.5 11Z" fill="currentColor"/><path fill-rule="evenodd" clip-rule="evenodd" d="M12.2631 20.9815C12.1873 20.9931 12.1156 20.9994 12.0482 20.9999C11.375 21.0055 10.2581 20.4912 9.01132 19.6575C8.93461 19.6062 8.85742 19.5537 8.7798 19.5C7.89154 18.8859 6.94849 18.1196 6.06012 17.271C5.69688 16.924 5.34278 16.5633 5.00533 16.1936C3.66132 14.7213 2.58115 13.1069 2.23774 11.6525C1.4332 8.24509 3.60929 4.00012 7.90679 4.00012C9.75178 4.00012 11.0633 5.20369 11.787 5.86777C11.8849 5.95757 11.972 6.03756 12.0483 6.10332C12.1474 6.02444 12.2637 5.91946 12.3978 5.79842C13.122 5.14463 14.3653 4.0223 16.2302 4.01408C20.4914 3.99531 22.559 8.26301 21.7354 11.6525C21.5429 12.4443 21.0585 13.3497 20.3984 14.2782C20.1149 14.6769 19.799 15.08 19.4599 15.4801C19.4578 15.4826 19.4557 15.485 19.4536 15.4875C18.1754 16.9944 16.5689 18.4595 15.1262 19.5L15.1232 19.5022C15.0455 19.5582 14.9682 19.6131 14.8915 19.6666L14.8898 19.6678C13.8474 20.3949 12.9074 20.883 12.2631 20.9815ZM13.9254 18.5105C14.6618 17.9997 15.5195 17.3205 16.3587 16.5437C17.1567 15.8052 17.8766 15.0448 18.4776 14.3163L16.3841 11.8041C16.1842 11.5642 15.8158 11.5642 15.6159 11.8041L11.9763 16.1716L13.9254 18.5105ZM19.4015 13.0819L17.5364 10.8438C16.7368 9.88427 15.2631 9.88427 14.4636 10.8438L11 15L10.0364 13.8438C9.23685 12.8843 7.76314 12.8843 6.96355 13.8438L5.97505 15.03C4.77596 13.6868 3.94582 12.359 3.6976 11.3078C3.01996 8.43785 4.9571 5.50012 7.90679 5.50012C8.63763 5.50012 9.32077 5.78974 10.0342 6.33755C10.2102 6.47268 10.3801 6.61676 10.5798 6.79685L10.5883 6.80462C10.6456 6.85703 10.9751 7.15856 11.0684 7.23907C11.6143 7.70998 12.4179 7.72598 12.9821 7.27718C13.0059 7.25821 13.096 7.17914 13.2169 7.07305C13.485 6.8377 13.9046 6.46935 14.089 6.32894C14.7867 5.79753 15.4629 5.51748 16.2368 5.51407C19.1189 5.50137 20.9767 8.4222 20.2778 11.2983C20.1576 11.793 19.8517 12.4056 19.4015 13.0819ZM7.02262 16.116L8.11588 14.8041C8.31578 14.5642 8.68421 14.5642 8.8841 14.8041L12.6302 19.2993C12.3662 19.4287 12.1615 19.4989 12.0357 19.5C11.4665 19.5047 9.51398 18.3521 7.69034 16.7333C7.46075 16.5295 7.23791 16.3234 7.02262 16.116Z" fill="currentColor"/></svg>