<svg width="32" height="32" viewBox="0 0 32 32" fill="none" xmlns="http://www.w3.org/2000/svg" aria-hidden="true"><path d="M8.06067 5.93934C7.47489 5.35355 6.52514 5.35355 5.93935 5.93934C5.35357 6.52513 5.35357 7.47487 5.93935 8.06066L13.8787 16L5.93934 23.9394C5.35355 24.5251 5.35355 25.4749 5.93934 26.0607C6.52513 26.6465 7.47487 26.6465 8.06066 26.0607L16 18.1213L23.9394 26.0607C24.5252 26.6465 25.4749 26.6465 26.0607 26.0607C26.6465 25.4749 26.6465 24.5251 26.0607 23.9394L18.1213 16L26.0607 8.06066C26.6465 7.47487 26.6465 6.52513 26.0607 5.93934C25.4749 5.35355 24.5251 5.35355 23.9394 5.93934L16 13.8787L8.06067 5.93934Z" fill="currentColor"/></svg>