<svg width="24" height="24" viewBox="0 0 24 24" fill="none" xmlns="http://www.w3.org/2000/svg"><path fill-rule="evenodd" clip-rule="evenodd" d="M20 5.5H4C3.72386 5.5 3.5 5.72386 3.5 6V13.4444H20.5V6C20.5 5.72386 20.2761 5.5 20 5.5ZM3.5 16V14.8611H20.5V16C20.5 16.2761 20.2761 16.5 20 16.5H4C3.72386 16.5 3.5 16.2761 3.5 16ZM22 16V14.8611V13.4444V6C22 4.89543 21.1046 4 20 4H4C2.89543 4 2 4.89543 2 6V16C2 17.1046 2.89543 18 4 18H8V19.5833H5.70833C5.31713 19.5833 5 19.9005 5 20.2917C5 20.6829 5.31713 21 5.70833 21H18.2917C18.6829 21 19 20.6829 19 20.2917C19 19.9005 18.6829 19.5833 18.2917 19.5833H16V18H20C21.1046 18 22 17.1046 22 16ZM14.5 18H9.5V19.5833H14.5V18Z" fill="currentColor"/></svg>