<svg width="24" height="24" viewBox="0 0 24 24" fill="none" xmlns="http://www.w3.org/2000/svg"><path fill-rule="evenodd" clip-rule="evenodd" d="M17.3739 3.43643C17.713 3.2791 18.0803 3.19194 18.4539 3.18018C19.2072 3.17152 19.9333 3.4615 20.4735 3.98672C20.742 4.25215 20.9537 4.56951 21.0955 4.91944C21.2374 5.26929 21.3065 5.64437 21.2986 6.02179C21.2877 6.39455 21.2015 6.76125 21.0453 7.09987C20.8889 7.43874 20.6656 7.74248 20.3888 7.99281L12.2883 15.2908L12.2927 15.4077C12.2951 15.4718 12.299 15.524 12.3025 15.571C12.3049 15.6028 12.3071 15.6323 12.3085 15.6615C12.3099 15.6941 12.3105 15.7269 12.3099 15.76C12.3097 15.7664 12.3094 15.7729 12.3091 15.7795C12.2284 16.5697 11.991 17.336 11.6108 18.0335C11.2295 18.7329 10.7123 19.349 10.0896 19.8458L10.0865 19.8483C9.27645 20.5159 8.24871 20.8622 7.19979 20.8214C5.78367 20.7688 4.39356 20.4251 3.11616 19.8115C3.0102 19.7589 2.9182 19.6819 2.84768 19.5868C2.7769 19.4914 2.72978 19.3806 2.71023 19.2634C2.69068 19.1462 2.69924 19.0261 2.73521 18.9128C2.77022 18.8027 2.83021 18.7021 2.91046 18.619C3.30405 18.2811 3.62429 17.8662 3.85139 17.3997C4.0796 16.931 4.20885 16.4203 4.23114 15.8995C4.29057 15.0811 4.52903 14.2857 4.92965 13.5695C5.26569 13.0528 5.71262 12.6174 6.238 12.295C6.76563 11.9712 7.359 11.7696 7.97466 11.7049L7.97636 11.7047C8.46692 11.6497 8.96349 11.6905 9.4385 11.8248L9.60144 11.8709L9.70468 11.7367C9.71896 11.7181 9.72901 11.7004 9.73544 11.6879L16.4799 4.09686C16.7303 3.81864 17.0344 3.59398 17.3739 3.43643ZM11.8213 13.6866L19.3858 6.87804C19.5118 6.76452 19.6135 6.62648 19.6845 6.47244C19.7555 6.31839 19.7944 6.1515 19.7988 5.98194C19.8033 5.81237 19.7732 5.64368 19.7103 5.48612C19.6478 5.32933 19.5542 5.18683 19.4351 5.06722C19.3143 4.94207 19.169 4.84311 19.0083 4.77653C18.8469 4.70964 18.6729 4.67688 18.4982 4.68028C18.3282 4.68391 18.1607 4.72247 18.0062 4.79358C17.8517 4.86469 17.7129 4.96741 17.5996 5.09421L10.9229 12.6112L11.1309 12.806C11.2157 12.8853 11.292 12.9566 11.3653 13.037C11.4739 13.1633 11.5732 13.2971 11.6627 13.4375L11.8213 13.6866ZM7.11801 19.3221C7.83253 19.331 8.55385 19.1855 9.08994 18.7218C9.55921 18.3592 9.95252 17.9078 10.2474 17.3933C10.5435 16.8766 10.7348 16.3065 10.8097 15.7157L10.8105 15.7063C10.8369 15.409 10.8023 15.1095 10.7087 14.8261C10.6157 14.5442 10.4663 14.2842 10.2696 14.0618C10.0153 13.7533 9.68831 13.5128 9.31806 13.3617C8.94647 13.21 8.54297 13.1533 8.14399 13.1966C7.76968 13.2359 7.40775 13.3531 7.08152 13.5408C6.75515 13.7286 6.47177 13.9827 6.24965 14.2868L6.24063 14.2991L6.23318 14.3125C5.92629 14.8627 5.75031 15.4763 5.71889 16.1055C5.66649 16.9871 5.38061 17.8388 4.89054 18.5735L4.70543 18.851L5.02374 18.9508C5.6493 19.1469 6.3976 19.313 7.11801 19.3221Z" fill="currentColor"/><path fill="currentColor" d="M8.072 2.048c-.013-.064-.13-.064-.144 0-.115.543-.38 1.51-.875 2.005-.495.496-1.462.76-2.005.875-.064.013-.064.13 0 .144.543.115 1.51.38 2.005.875.496.495.76 1.462.875 2.005.013.064.13.064.144 0 .115-.543.38-1.51.875-2.005.495-.496 1.462-.76 2.006-.875.063-.013.063-.13 0-.144-.544-.115-1.51-.38-2.006-.875-.496-.495-.76-1.462-.875-2.005Zm-4.12 5.984c.009-.043.087-.043.096 0 .077.362.253 1.007.583 1.337.33.33.975.506 1.337.583.043.009.043.087 0 .096-.362.077-1.007.253-1.337.583-.33.33-.506.975-.583 1.337-.009.043-.087.043-.096 0-.077-.362-.253-1.007-.583-1.337-.33-.33-.975-.506-1.337-.583-.043-.009-.043-.087 0-.096.362-.077 1.007-.253 1.337-.583.33-.33.506-.975.583-1.337Zm15.12 7.015c-.013-.063-.13-.063-.144 0-.115.544-.38 1.51-.875 2.006-.495.496-1.462.76-2.006.875-.063.013-.063.13 0 .144.544.115 1.51.38 2.006.875.496.495.76 1.462.875 2.006.013.063.13.063.144 0 .115-.544.38-1.51.875-2.006.495-.496 1.462-.76 2.006-.875.063-.013.063-.13 0-.144-.544-.115-1.51-.38-2.006-.875-.496-.495-.76-1.462-.875-2.006Z"/></svg>